REM DIRINDEX 1\2\6,1\2\7,1\2\8,1\2\9,1\3\10,1\3\11,1\4\12,1\4\13,1\4\14,1\5\15,1\5\16,1\5\17
REM DIRNAME folder01,folder02,folder03,folder04,folder05,folder06,folder07,folder08,folder09,folder10,folder11,folder12,folder13,folder14,folder15,folder16,folder17
TITLE ""
FILE "1400_2_sec01_0034_0049.mp3" MP3
  TRACK 01 AUDIO
    TITLE "0:"
    INDEX 01 00:00:00
  TRACK 02 AUDIO
    TITLE "13:cjc029_1631"
    INDEX 01 00:00:19
  TRACK 03 AUDIO
    TITLE "0:"
    INDEX 01 00:01:22
  TRACK 04 AUDIO
    TITLE "14:cjc029_1632"
    INDEX 01 00:01:24
  TRACK 05 AUDIO
    TITLE "0:"
    INDEX 01 00:04:52
  TRACK 06 AUDIO
    TITLE "13:cjc029_1633"
    INDEX 01 00:05:32
  TRACK 07 AUDIO
    TITLE "0:"
    INDEX 01 00:06:41
  TRACK 08 AUDIO
    TITLE "14:cjc029_1634"
    INDEX 01 00:06:43
  TRACK 09 AUDIO
    TITLE "0:"
    INDEX 01 00:09:32
  TRACK 10 AUDIO
    TITLE "13:cjc029_1635"
    INDEX 01 00:10:16
  TRACK 11 AUDIO
    TITLE "0:"
    INDEX 01 00:11:17
  TRACK 12 AUDIO
    TITLE "14:cjc029_1636"
    INDEX 01 00:11:21
  TRACK 13 AUDIO
    TITLE "0:"
    INDEX 01 00:15:30
  TRACK 14 AUDIO
    TITLE "13:cjc029_1637"
    INDEX 01 00:16:06
  TRACK 15 AUDIO
    TITLE "0:"
    INDEX 01 00:17:23
  TRACK 16 AUDIO
    TITLE "14:cjc029_1638"
    INDEX 01 00:17:25
  TRACK 17 AUDIO
    TITLE "0:"
    INDEX 01 00:18:27
  TRACK 18 AUDIO
    TITLE "13:cjc029_1639"
    INDEX 01 00:19:07
  TRACK 19 AUDIO
    TITLE "0:"
    INDEX 01 00:20:24
  TRACK 20 AUDIO
    TITLE "14:cjc029_1640"
    INDEX 01 00:20:28
  TRACK 21 AUDIO
    TITLE "0:"
    INDEX 01 00:22:56
  TRACK 22 AUDIO
    TITLE "13:cjc029_1641"
    INDEX 01 00:23:36
  TRACK 23 AUDIO
    TITLE "0:"
    INDEX 01 00:24:45
  TRACK 24 AUDIO
    TITLE "14:cjc029_1642"
    INDEX 01 00:24:49
  TRACK 25 AUDIO
    TITLE "0:"
    INDEX 01 00:27:16
  TRACK 26 AUDIO
    TITLE "13:cjc029_1643"
    INDEX 01 00:27:73
  TRACK 27 AUDIO
    TITLE "0:"
    INDEX 01 00:29:13
  TRACK 28 AUDIO
    TITLE "14:cjc029_1644"
    INDEX 01 00:29:19
  TRACK 29 AUDIO
    TITLE "0:"
    INDEX 01 00:32:35
  TRACK 30 AUDIO
    TITLE "13:cjc029_1645"
    INDEX 01 00:33:15
  TRACK 31 AUDIO
    TITLE "0:"
    INDEX 01 00:34:34
  TRACK 32 AUDIO
    TITLE "14:cjc029_1646"
    INDEX 01 00:34:38
  TRACK 33 AUDIO
    TITLE "0:"
    INDEX 01 00:36:74
  TRACK 34 AUDIO
    TITLE "13:cjc029_1647"
    INDEX 01 00:37:54
  TRACK 35 AUDIO
    TITLE "0:"
    INDEX 01 00:38:53
  TRACK 36 AUDIO
    TITLE "14:cjc029_1648"
    INDEX 01 00:38:55
  TRACK 37 AUDIO
    TITLE "0:"
    INDEX 01 00:41:12
  TRACK 38 AUDIO
    TITLE "13:cjc029_1649"
    INDEX 01 00:41:69
  TRACK 39 AUDIO
    TITLE "0:"
    INDEX 01 00:43:15
  TRACK 40 AUDIO
    TITLE "14:cjc029_1650"
    INDEX 01 00:43:17
  TRACK 41 AUDIO
    TITLE "0:"
    INDEX 01 00:46:21
  TRACK 42 AUDIO
    TITLE "12:cjc029_1651"
    INDEX 01 00:47:70
  TRACK 43 AUDIO
    TITLE "0:"
    INDEX 01 00:49:25
  TRACK 44 AUDIO
    TITLE "13:cjc029_1652"
    INDEX 01 00:50:29
  TRACK 45 AUDIO
    TITLE "0:"
    INDEX 01 00:51:38
  TRACK 46 AUDIO
    TITLE "14:cjc029_1653"
    INDEX 01 00:51:42
  TRACK 47 AUDIO
    TITLE "0:"
    INDEX 01 00:53:37
  TRACK 48 AUDIO
    TITLE "13:cjc029_1654"
    INDEX 01 00:54:19
  TRACK 49 AUDIO
    TITLE "0:"
    INDEX 01 00:55:26
  TRACK 50 AUDIO
    TITLE "14:cjc029_1655"
    INDEX 01 00:55:28
  TRACK 51 AUDIO
    TITLE "0:"
    INDEX 01 00:58:56
  TRACK 52 AUDIO
    TITLE "13:cjc029_1656"
    INDEX 01 00:59:36
  TRACK 53 AUDIO
    TITLE "0:"
    INDEX 01 01:00:41
  TRACK 54 AUDIO
    TITLE "14:cjc029_1657"
    INDEX 01 01:00:45
  TRACK 55 AUDIO
    TITLE "0:"
    INDEX 01 01:02:65
  TRACK 56 AUDIO
    TITLE "13:cjc029_1658"
    INDEX 01 01:03:47
  TRACK 57 AUDIO
    TITLE "0:"
    INDEX 01 01:04:54
  TRACK 58 AUDIO
    TITLE "14:cjc029_1659"
    INDEX 01 01:04:58
  TRACK 59 AUDIO
    TITLE "0:"
    INDEX 01 01:07:70
  TRACK 60 AUDIO
    TITLE "13:cjc029_1660"
    INDEX 01 01:08:50
  TRACK 61 AUDIO
    TITLE "0:"
    INDEX 01 01:09:52
  TRACK 62 AUDIO
    TITLE "14:cjc029_1661"
    INDEX 01 01:09:59
  TRACK 63 AUDIO
    TITLE "0:"
    INDEX 01 01:14:25
  TRACK 64 AUDIO
    TITLE "13:cjc029_1662"
    INDEX 01 01:15:07
  TRACK 65 AUDIO
    TITLE "0:"
    INDEX 01 01:16:20
  TRACK 66 AUDIO
    TITLE "14:cjc029_1663"
    INDEX 01 01:16:22
  TRACK 67 AUDIO
    TITLE "0:"
    INDEX 01 01:20:38
